<?xml version="1.0" standalone="no"?>
<!DOCTYPE svg PUBLIC "-//W3C//DTD SVG 20010904//EN"
 "http://www.w3.org/TR/2001/REC-SVG-20010904/DTD/svg10.dtd">
<svg version="1.0" xmlns="http://www.w3.org/2000/svg"
 width="3488.000000pt" height="3488.000000pt" viewBox="0 0 3488.000000 3488.000000"
 preserveAspectRatio="xMidYMid meet">
<metadata>
Created by potrace 1.14, written by Peter Selinger 2001-2017
</metadata>
<g transform="translate(0.000000,3488.000000) scale(0.100000,-0.100000)"
fill="#000000" stroke="none">
<path d="M33625 21461 c-2 -1 -19 -5 -37 -7 -94 -10 -150 -23 -238 -55 -123
-45 -277 -143 -348 -222 -10 -10 -29 -31 -43 -46 -89 -94 -157 -232 -190 -386
-17 -80 -20 -300 -5 -370 22 -99 83 -253 118 -300 95 -127 148 -182 234 -242
108 -75 271 -145 369 -159 17 -2 41 -7 55 -10 14 -3 95 -8 180 -10 156 -3 263
8 360 39 25 7 48 14 53 15 19 3 207 96 207 102 0 4 11 12 24 18 26 12 196 171
196 184 0 4 10 18 23 31 24 27 97 165 97 185 0 6 5 12 12 12 6 0 9 3 5 6 -3 3
1 23 8 45 8 22 14 41 15 44 0 3 0 6 1 8 3 10 10 50 15 92 9 72 5 270 -6 270
-1 0 -3 11 -5 25 -9 78 -69 235 -101 268 -8 7 -14 20 -14 28 0 8 -4 14 -10 14
-5 0 -10 5 -10 10 0 25 -150 175 -235 235 -33 24 -87 56 -120 71 -33 16 -63
33 -66 37 -3 5 -10 8 -15 8 -5 -1 -29 6 -54 14 -54 17 -105 28 -195 41 -52 7
-274 12 -280 5z"/>
<path d="M20182 20861 c-5 -3 -8 -1637 -8 -3631 1 -3446 2 -3625 19 -3624 9 1
17 -2 17 -7 0 -5 11 -4 25 1 14 5 25 6 25 2 0 -8 85 -6 100 3 5 3 10 2 10 -4
0 -6 11 -6 30 -1 18 5 30 5 30 0 0 -6 10 -6 25 0 15 6 26 6 30 0 4 -6 13 -7
24 -1 10 6 23 6 31 1 8 -5 21 -5 31 1 11 6 20 5 24 -1 4 -7 13 -7 26 0 12 7
25 7 37 1 11 -6 24 -6 34 0 11 6 19 6 23 -1 4 -7 12 -7 25 0 11 6 21 6 25 1 3
-6 17 -6 35 -1 18 5 32 5 35 -1 4 -5 14 -5 25 1 13 7 21 7 25 0 4 -6 13 -7 23
-1 11 6 24 6 34 0 10 -6 26 -5 42 1 15 5 26 6 26 0 0 -5 12 -5 30 0 18 5 30 5
30 0 0 -6 10 -6 25 0 15 6 26 6 30 0 4 -6 13 -7 24 -1 10 6 23 6 31 1 8 -5 21
-5 31 1 11 6 20 5 24 -1 4 -7 13 -7 26 0 12 7 25 7 37 1 11 -6 24 -6 34 0 11
6 19 6 23 -1 4 -7 12 -7 25 0 11 6 21 6 25 1 3 -6 17 -6 35 -1 18 5 32 5 35
-1 4 -5 14 -5 25 1 13 7 21 7 25 0 4 -6 13 -7 23 -1 11 6 24 6 34 0 10 -6 26
-5 42 1 15 5 26 6 26 0 0 -5 12 -5 30 0 19 5 30 5 30 -1 0 -6 4 -7 10 -4 15 9
80 12 86 4 9 -15 44 4 45 25 0 11 1 527 1 1145 l1 1123 21 -26 c11 -14 32 -42
46 -61 14 -20 42 -58 63 -85 20 -27 37 -54 37 -59 0 -5 4 -11 8 -13 4 -2 55
-68 112 -148 58 -80 108 -149 113 -155 45 -58 137 -188 137 -196 0 -5 3 -9 8
-9 4 0 21 -21 37 -45 17 -25 33 -45 38 -45 4 0 7 -5 7 -10 0 -6 5 -16 10 -23
6 -7 50 -66 98 -132 47 -66 90 -121 94 -123 5 -2 8 -8 8 -13 0 -5 16 -30 36
-56 54 -72 58 -78 254 -348 100 -137 190 -261 200 -275 10 -14 64 -88 119
-165 56 -77 104 -145 109 -150 5 -6 32 -43 61 -83 33 -45 59 -71 67 -68 7 3
16 1 19 -4 4 -7 13 -6 25 0 13 7 21 7 25 0 4 -6 13 -7 24 -1 9 5 23 6 31 1 7
-4 24 -4 36 0 14 6 26 5 29 0 3 -6 15 -6 30 0 15 6 27 6 30 0 4 -6 13 -7 24
-1 10 6 23 6 31 1 8 -5 19 -5 25 0 6 5 17 5 25 0 8 -5 21 -5 30 0 9 5 22 5 29
1 7 -5 30 -5 52 -1 22 4 42 4 45 -1 2 -4 16 -4 29 1 15 6 27 6 30 0 4 -7 13
-7 24 0 10 5 21 7 23 4 5 -4 72 -6 128 -4 8 1 24 -1 35 -3 11 -2 27 -1 36 4 8
4 21 4 29 -1 8 -5 21 -5 31 1 11 6 20 5 24 -1 4 -7 13 -7 26 0 12 7 25 7 37 1
11 -6 24 -6 34 0 11 6 19 6 23 -1 4 -7 12 -7 25 0 11 6 21 6 25 1 3 -6 17 -6
35 -1 18 5 32 5 35 -1 4 -5 14 -5 25 1 13 7 21 7 25 0 4 -6 13 -7 23 -1 11 6
24 6 34 0 10 -6 26 -5 42 1 15 5 26 6 26 0 0 -5 12 -5 30 0 18 5 30 5 30 0 0
-6 10 -6 25 0 15 6 26 6 30 0 4 -6 13 -7 24 -1 10 6 23 6 31 1 8 -5 21 -5 31
1 11 6 20 5 24 -1 4 -7 13 -7 26 0 12 7 25 7 37 1 11 -6 24 -6 34 0 11 6 19 6
23 -1 4 -7 12 -7 25 0 11 6 21 6 25 1 3 -6 17 -6 35 -1 18 5 32 5 35 -1 4 -5
14 -5 25 1 13 7 21 7 25 0 4 -6 13 -7 23 -1 11 6 24 6 34 0 10 -6 26 -5 42 1
14 5 26 6 26 2 0 -6 65 -7 80 -2 3 2 8 2 13 1 13 -2 7 22 -11 38 -9 9 -38 41
-62 71 -25 30 -49 60 -55 66 -5 6 -25 29 -43 52 -34 41 -66 79 -100 117 -10
11 -47 55 -82 98 -36 42 -68 77 -72 77 -4 0 -8 6 -8 13 0 7 -10 23 -22 34 -13
11 -33 34 -45 50 -12 16 -33 41 -45 55 -22 25 -78 90 -115 135 -33 40 -88 105
-103 123 -8 10 -33 39 -55 66 -22 26 -46 53 -52 60 -7 7 -13 15 -13 18 0 3
-10 16 -22 29 -57 61 -78 86 -78 96 0 6 -4 11 -9 11 -4 0 -48 48 -97 108 -77
92 -112 134 -159 186 -5 6 -28 34 -50 61 -21 28 -42 52 -45 55 -3 3 -28 32
-55 65 -28 33 -54 65 -60 71 -5 7 -24 29 -42 50 -18 22 -44 53 -58 69 -14 17
-40 47 -58 69 -18 21 -37 43 -42 50 -10 10 -151 178 -218 259 -18 21 -43 51
-57 66 -14 16 -32 37 -40 48 -19 24 -162 194 -175 209 -20 22 -100 118 -112
133 -16 20 -16 27 0 43 13 14 154 184 272 328 38 47 72 87 75 90 3 3 25 30 50
60 25 30 47 57 50 60 3 3 37 43 75 90 38 47 74 90 80 96 5 7 24 29 42 50 17
22 40 49 50 61 11 12 28 34 39 49 10 14 33 42 49 60 17 19 35 40 40 46 58 72
151 185 159 193 6 6 29 33 51 60 22 28 43 52 47 53 5 2 8 8 8 12 0 5 12 22 28
38 15 15 38 43 52 61 14 17 34 42 45 55 11 13 36 42 55 66 19 24 43 52 53 62
9 10 17 21 17 24 0 4 8 14 18 23 9 9 35 39 57 66 21 28 42 52 45 55 3 3 59 70
125 150 66 80 127 154 136 165 40 48 135 161 144 172 6 7 15 18 20 25 53 65
225 273 258 312 23 27 49 58 57 68 8 11 26 32 39 46 l23 27 -38 5 c-22 3 -43
4 -49 1 -16 -8 -115 -6 -115 2 0 5 -5 5 -12 1 -6 -4 -38 -6 -72 -5 -34 1 -70
2 -81 1 -11 -1 -42 -1 -70 -1 -27 1 -59 1 -70 0 -40 -2 -51 -1 -93 3 -24 2
-45 1 -47 -3 -5 -7 -74 -4 -82 5 -3 2 -16 1 -29 -4 -15 -6 -26 -6 -30 1 -3 6
-10 6 -17 1 -7 -5 -28 -7 -47 -5 -19 2 -41 4 -47 4 -130 -3 -162 -3 -170 2 -5
3 -15 2 -22 -3 -8 -4 -25 -4 -40 0 -14 4 -34 4 -45 0 -10 -3 -35 -4 -55 -2
-20 2 -43 3 -51 3 -85 -4 -302 -1 -309 4 -5 3 -12 1 -15 -4 -6 -9 -73 -7 -83
3 -3 2 -16 1 -29 -4 -15 -6 -26 -6 -30 1 -3 6 -10 6 -17 1 -7 -5 -28 -7 -47
-5 -19 2 -44 3 -55 3 -21 -2 -30 -2 -85 -1 -124 2 -114 6 -172 -72 -29 -40
-58 -79 -65 -87 -7 -8 -33 -44 -60 -80 -26 -36 -51 -69 -56 -75 -21 -27 -183
-245 -271 -365 -55 -74 -106 -141 -113 -148 -7 -7 -13 -17 -13 -20 0 -4 -10
-19 -22 -32 -13 -14 -39 -48 -58 -75 -19 -28 -40 -57 -47 -65 -12 -14 -255
-340 -284 -382 -66 -92 -183 -244 -190 -246 -5 -2 -9 -8 -9 -13 0 -5 -36 -57
-81 -116 -44 -60 -88 -119 -97 -132 -9 -13 -22 -28 -27 -35 -6 -6 -28 -36 -50
-66 -22 -30 -43 -59 -48 -65 -33 -40 -97 -131 -97 -138 0 -5 -4 -6 -9 -3 -5 3
-9 847 -9 1968 0 1080 -1 1979 -1 1998 l-1 36 -830 0 c-457 0 -834 -2 -838 -5z"/>
<path d="M297 20480 c-1 -8 -3 -1558 -3 -3445 l1 -3430 27 0 c15 -1 30 -4 34
-8 4 -3 15 -2 25 3 12 7 20 7 24 0 4 -6 13 -7 23 -1 11 6 24 6 34 0 10 -6 26
-5 42 1 15 5 26 6 26 0 0 -5 12 -5 30 0 18 5 30 5 30 0 0 -6 10 -6 25 0 15 6
26 6 30 0 4 -6 13 -7 24 -1 10 6 23 6 31 1 8 -5 21 -5 31 1 11 6 20 5 24 -1 4
-7 13 -7 26 0 12 7 25 7 37 1 11 -6 24 -6 34 0 11 6 19 6 23 -1 4 -7 12 -7 25
0 11 6 21 6 25 1 3 -6 17 -6 35 -1 18 5 32 5 35 -1 4 -5 14 -5 25 1 13 7 21 7
25 0 4 -6 13 -7 23 -1 11 6 24 6 34 0 10 -6 26 -5 42 1 15 5 26 6 26 0 0 -5
12 -5 30 0 19 5 30 5 30 -1 0 -6 4 -7 10 -4 15 9 81 12 86 4 3 -5 16 -4 29 1
15 6 27 6 30 0 4 -6 13 -7 24 -1 10 6 23 6 31 1 8 -5 19 -5 25 0 6 5 17 5 25
0 8 -5 21 -5 30 0 9 5 22 5 29 1 7 -5 30 -5 52 -1 22 4 42 4 45 -1 2 -4 16 -4
29 1 15 6 27 6 30 0 4 -7 13 -7 24 0 10 5 21 7 23 4 8 -8 117 -9 124 -1 4 3
15 2 25 -4 13 -7 19 -6 19 1 0 8 6 8 20 0 15 -8 21 -7 28 7 4 10 8 941 7 2070
0 1128 3 2049 7 2047 5 -3 8 -11 8 -17 0 -7 13 -47 30 -89 16 -43 44 -114 60
-158 17 -44 44 -116 60 -160 17 -44 43 -115 59 -157 116 -306 194 -519 194
-530 0 -7 4 -13 9 -13 4 0 7 -3 6 -7 0 -5 2 -15 5 -23 9 -20 197 -522 201
-535 2 -5 6 -19 10 -30 21 -57 35 -94 50 -130 22 -57 97 -258 100 -270 2 -5 8
-23 15 -40 6 -16 16 -41 21 -55 5 -14 15 -38 21 -55 7 -16 14 -39 16 -49 2
-11 7 -24 12 -30 4 -6 18 -40 30 -76 12 -36 26 -74 31 -85 14 -34 35 -90 35
-95 0 -3 7 -16 15 -30 7 -14 13 -27 13 -30 -1 -8 32 -104 57 -165 4 -11 18
-47 30 -80 12 -33 26 -69 30 -80 5 -11 18 -47 30 -80 11 -33 24 -69 29 -80 5
-11 19 -47 31 -80 12 -33 26 -69 30 -80 4 -11 17 -45 28 -75 11 -30 34 -91 51
-135 35 -92 138 -371 184 -495 35 -97 45 -113 64 -106 7 3 13 2 13 -2 0 -5
113 -6 245 -1 6 0 19 -2 30 -4 11 -2 27 -1 36 4 8 4 21 4 29 -1 8 -5 21 -5 31
1 11 6 20 5 24 -1 4 -7 13 -7 26 0 12 7 25 7 37 1 11 -6 24 -6 34 0 11 6 19 6
23 -1 4 -7 12 -7 25 0 11 6 21 6 25 1 3 -6 17 -6 35 -1 18 5 32 5 35 -1 4 -5
14 -5 25 1 13 7 21 7 25 0 4 -6 13 -7 23 -1 11 6 24 6 34 0 10 -6 26 -5 42 1
15 5 26 6 26 0 0 -5 12 -5 30 0 18 5 30 5 30 0 0 -6 10 -6 25 0 15 6 26 6 30
0 4 -6 13 -7 24 -1 10 6 23 6 31 1 8 -5 21 -5 31 1 11 6 20 5 24 -1 4 -7 13
-7 26 0 12 7 25 7 37 1 11 -6 24 -6 34 0 11 6 19 6 23 -1 4 -7 12 -7 24 0 10
5 21 6 25 3 8 -8 102 -7 116 2 6 3 8 11 5 16 -4 5 -2 9 3 9 5 0 14 17 20 38 6
20 20 62 32 92 27 70 61 162 64 175 1 6 8 20 14 33 7 12 10 22 6 22 -3 0 -2 6
3 13 6 6 18 37 28 67 10 30 21 59 26 65 5 5 9 15 9 23 0 8 6 28 14 45 8 18 30
77 51 132 20 55 49 134 65 175 15 41 38 102 50 134 11 33 24 64 28 70 3 6 7
18 9 26 1 8 17 55 37 105 33 88 41 109 46 130 1 6 10 26 20 45 9 19 21 49 25
65 10 37 10 35 22 65 6 14 18 42 26 63 9 20 14 37 11 37 -2 0 5 19 17 43 12
23 21 42 20 42 -1 0 2 11 7 25 5 14 18 50 28 80 11 30 24 58 29 62 6 4 7 8 3
8 -5 0 22 79 57 165 4 11 9 25 10 30 3 10 60 165 75 200 4 11 13 34 19 50 6
17 16 44 22 60 7 17 13 35 15 40 1 6 34 93 72 195 38 102 98 262 132 355 35
94 68 184 75 200 13 30 179 475 181 485 0 3 4 12 7 20 4 8 40 105 82 215 41
110 75 192 76 183 1 -10 2 -24 3 -30 1 -7 -2 -19 -7 -25 -5 -7 -6 -13 -1 -13
5 0 9 -876 9 -2017 0 -1531 3 -2018 12 -2018 6 0 15 -3 18 -7 4 -4 15 -3 25 2
10 5 20 7 24 3 9 -9 58 -10 84 -1 12 4 22 3 22 -2 0 -5 12 -5 30 0 18 5 30 5
30 0 0 -6 11 -5 26 0 16 6 32 6 43 1 10 -6 23 -6 31 -1 8 5 21 5 31 -1 11 -6
20 -5 24 1 4 6 12 7 23 1 9 -5 26 -5 39 0 13 5 25 4 28 -1 4 -7 13 -6 25 0 13
7 21 7 25 0 4 -6 13 -7 24 -1 9 5 23 6 31 1 7 -4 24 -4 36 0 14 6 26 5 29 0 3
-6 15 -6 30 0 15 6 27 6 30 0 4 -6 13 -7 24 -1 10 6 23 6 31 1 8 -5 19 -5 25
0 6 5 17 5 25 0 8 -5 21 -5 30 0 9 5 22 5 29 1 7 -5 30 -5 52 -1 22 4 42 4 45
-1 2 -4 16 -4 29 1 15 6 27 6 30 0 4 -7 13 -7 24 0 10 5 21 7 23 4 5 -4 72 -6
128 -4 8 1 24 -1 35 -3 11 -2 27 -1 36 4 8 4 21 4 29 -1 8 -5 21 -5 31 1 11 6
20 5 24 -1 4 -7 13 -7 26 0 12 7 25 7 37 1 11 -6 24 -6 34 0 11 6 19 6 23 -1
4 -7 12 -7 24 0 10 5 21 6 25 3 7 -7 126 -7 133 0 6 6 5 6879 -2 6885 -6 6
-1902 9 -1947 3 -16 -2 -28 -7 -28 -11 0 -4 -8 -25 -17 -46 -9 -22 -17 -41
-18 -44 -1 -3 -5 -14 -10 -25 -4 -11 -17 -42 -27 -70 -10 -27 -23 -59 -28 -70
-5 -11 -23 -56 -40 -100 -18 -44 -36 -89 -41 -100 -4 -11 -17 -42 -28 -70 -11
-27 -27 -68 -37 -90 -10 -22 -18 -42 -19 -45 -4 -17 -20 -60 -36 -95 -10 -22
-34 -83 -54 -135 -20 -52 -44 -111 -52 -130 -57 -133 -203 -504 -203 -517 0
-7 -4 -13 -8 -13 -4 0 -14 -21 -21 -47 -8 -27 -17 -50 -20 -53 -3 -3 -15 -30
-25 -60 -11 -30 -26 -66 -33 -80 -7 -14 -13 -28 -13 -31 0 -4 -8 -24 -17 -45
-9 -22 -18 -42 -19 -46 -1 -5 -3 -10 -4 -13 -1 -3 -3 -8 -5 -12 -1 -5 -7 -19
-12 -33 -6 -14 -35 -86 -65 -160 -30 -74 -58 -144 -63 -155 -4 -11 -9 -22 -10
-25 -1 -3 -5 -14 -10 -25 -40 -97 -117 -293 -119 -303 -1 -7 -8 -18 -14 -24
-7 -7 -12 -21 -12 -33 0 -12 -4 -25 -8 -31 -5 -5 -30 -63 -56 -129 -26 -66
-81 -202 -122 -303 -40 -100 -77 -194 -80 -207 -3 -14 -10 -28 -15 -31 -5 -3
-7 -10 -4 -15 4 -5 1 -9 -4 -9 -6 0 -11 -6 -11 -13 0 -10 -158 -413 -189 -482
-8 -17 -20 -49 -26 -65 -1 -3 -7 -18 -14 -35 -7 -16 -48 -120 -93 -230 -44
-110 -85 -211 -91 -225 -6 -14 -11 -27 -11 -30 -8 -36 -102 -248 -107 -243 -4
5 -17 33 -29 63 -12 30 -27 66 -33 80 -6 14 -11 27 -11 30 -1 3 -18 48 -39
100 -54 132 -54 134 -55 143 -1 4 -8 20 -16 35 -19 36 -46 98 -46 107 0 3 -8
25 -18 48 -10 23 -27 62 -37 87 -10 25 -23 59 -31 75 -7 17 -31 77 -54 135
-23 58 -47 119 -54 135 -41 95 -51 120 -49 125 0 3 -4 14 -10 25 -6 11 -10 23
-9 28 1 4 -2 7 -6 7 -5 0 -9 6 -10 13 0 13 -47 132 -62 159 -6 10 -10 25 -10
33 0 8 -4 15 -10 15 -5 0 -9 3 -8 8 2 4 -17 57 -42 117 -25 61 -45 112 -45
115 -1 3 -9 22 -18 44 -9 21 -17 40 -17 42 0 2 -9 26 -21 52 -12 26 -24 56
-29 67 -4 11 -13 31 -19 45 -7 14 -13 33 -15 42 -1 9 -8 24 -16 34 -8 9 -14
20 -12 23 1 3 -4 22 -12 41 -8 19 -54 132 -101 250 -48 118 -95 233 -105 255
-9 22 -21 51 -25 65 -4 14 -11 30 -15 35 -4 6 -13 28 -20 50 -7 22 -16 45 -20
50 -4 6 -13 28 -20 50 -7 22 -16 45 -20 50 -7 10 -61 142 -64 160 -2 6 -8 21
-14 35 -14 29 -162 390 -166 405 -5 16 -26 68 -36 90 -5 11 -44 106 -86 210
-42 105 -81 201 -87 215 -6 14 -11 27 -12 30 -1 3 -9 22 -18 44 -9 21 -17 41
-17 43 0 3 -6 19 -14 36 -8 18 -28 68 -45 112 -33 83 -36 90 -68 165 -11 25
-46 110 -78 190 l-58 145 -988 0 c-870 0 -988 -2 -992 -15z"/>
<path d="M11417 19163 c-4 -3 -59 -7 -124 -9 -65 -1 -131 -5 -148 -8 -16 -3
-55 -8 -85 -11 -63 -7 -85 -10 -155 -25 -27 -6 -59 -12 -70 -14 -27 -6 -164
-44 -195 -56 -193 -69 -381 -161 -530 -260 -52 -35 -102 -69 -110 -76 -8 -8
-49 -41 -90 -75 -85 -71 -216 -201 -275 -274 -22 -28 -43 -52 -47 -55 -4 -3
-34 -44 -67 -90 -33 -47 -64 -89 -69 -95 -13 -17 -102 -165 -102 -171 0 -3 -9
-18 -20 -34 -11 -15 -17 -30 -13 -34 3 -3 2 -6 -4 -6 -6 0 -19 -22 -29 -50
-10 -27 -22 -50 -26 -50 -4 0 -8 -5 -8 -11 0 -6 -6 -25 -14 -42 -38 -83 -113
-290 -122 -336 -3 -14 -7 -28 -10 -33 -3 -5 -7 -18 -10 -31 -2 -12 -11 -49
-19 -82 -9 -33 -18 -69 -20 -80 -3 -11 -7 -35 -10 -53 -2 -18 -6 -36 -8 -40
-3 -4 -8 -34 -12 -67 -3 -32 -8 -62 -10 -66 -3 -3 -7 -33 -10 -65 -3 -32 -7
-79 -10 -104 -13 -133 -17 -226 -16 -425 0 -121 2 -247 5 -280 10 -128 22
-230 37 -320 6 -38 12 -77 13 -85 1 -8 5 -26 8 -40 4 -14 12 -52 18 -85 43
-223 162 -551 267 -737 17 -32 30 -58 28 -58 -3 0 3 -9 13 -20 9 -12 17 -24
16 -28 0 -4 4 -11 8 -17 4 -5 33 -48 64 -95 31 -47 61 -86 65 -88 5 -2 9 -8 9
-14 0 -22 191 -241 299 -342 25 -22 53 -49 63 -59 15 -14 120 -95 243 -185 40
-30 218 -126 299 -162 123 -54 219 -88 361 -126 18 -5 150 -33 180 -38 17 -3
40 -8 53 -10 143 -29 554 -27 737 4 33 6 75 13 93 16 62 10 267 71 345 103
305 122 615 351 782 576 17 22 33 42 36 45 3 3 18 23 32 45 l27 39 -2 -54 c0
-30 0 -59 2 -65 1 -5 1 -14 0 -20 -1 -5 -1 -41 0 -80 1 -38 1 -77 0 -85 0 -13
0 -69 0 -105 0 -5 0 -28 0 -50 0 -22 0 -47 0 -55 0 -8 0 -37 0 -65 0 -27 0
-57 0 -65 1 -8 0 -33 -1 -55 -2 -22 1 -50 5 -61 6 -19 11 -21 41 -14 19 4 37
4 40 -1 3 -4 17 -4 30 1 15 6 27 6 30 0 4 -7 13 -7 24 0 10 5 21 7 23 4 8 -8
117 -9 124 -1 4 3 15 2 25 -4 13 -7 19 -6 19 1 0 7 6 8 18 1 10 -5 24 -6 32
-1 8 5 21 5 31 -1 11 -6 20 -5 24 1 4 6 12 7 23 1 9 -5 26 -5 39 0 13 5 25 4
28 -1 4 -7 13 -6 25 0 13 7 21 7 25 0 4 -7 12 -7 24 0 10 5 21 7 24 4 9 -10
42 -12 58 -3 8 4 21 4 29 -1 8 -5 21 -5 31 1 11 6 20 5 24 -1 4 -7 13 -7 26 0
12 7 25 7 37 1 11 -6 24 -6 34 0 11 6 19 6 23 -1 4 -7 12 -7 25 0 11 6 21 6
25 1 3 -6 17 -6 35 -1 18 5 32 5 35 -1 4 -5 14 -5 25 1 13 7 21 7 25 0 4 -6
13 -7 23 -1 11 6 24 6 34 0 10 -6 26 -5 42 1 15 5 26 6 26 0 0 -5 12 -5 30 0
18 5 30 5 30 0 0 -6 11 -5 26 0 16 6 32 6 43 1 10 -6 23 -6 31 -1 8 5 21 5 31
-1 11 -6 20 -5 24 1 4 6 12 7 23 1 9 -5 26 -5 39 0 13 5 25 4 28 -1 4 -7 13
-6 25 0 13 7 21 7 25 0 4 -6 13 -7 24 -1 9 5 23 6 30 2 7 -4 23 -6 35 -4 23 5
23 5 22 174 -1 93 2 169 6 169 4 0 3 12 -1 28 -8 31 -6 234 2 256 3 8 3 17 0
20 -9 9 -9 316 0 316 5 0 5 5 1 12 -10 15 -10 221 0 236 4 7 4 12 -1 12 -10 0
-9 132 1 148 4 7 4 12 -1 12 -7 0 -9 174 -3 205 1 6 1 12 0 15 -6 17 -4 180 3
180 5 0 5 5 1 11 -9 15 -11 469 -2 469 4 0 3 12 -1 28 -8 31 -6 234 2 256 3 8
3 17 0 20 -9 9 -9 316 0 316 5 0 5 5 1 12 -10 15 -10 221 0 236 4 7 4 12 -1
12 -10 0 -9 132 1 148 4 7 4 12 -1 12 -7 0 -9 174 -3 205 1 6 1 12 0 15 -6 17
-4 180 3 180 5 0 5 5 1 11 -9 15 -11 469 -2 469 4 0 3 12 -1 28 -8 31 -6 234
2 256 3 8 3 17 0 20 -9 9 -9 316 0 316 5 0 5 5 1 12 -10 15 -10 221 0 236 4 7
4 12 -1 12 -10 0 -9 132 1 148 4 7 4 12 -1 12 -4 0 -8 36 -8 80 0 44 3 80 7
80 4 0 5 6 2 13 -3 8 -6 27 -8 43 -2 16 -4 32 -5 36 0 4 -34 7 -74 6 -41 -1
-78 1 -83 5 -6 3 -16 2 -23 -3 -8 -4 -25 -4 -40 0 -14 4 -34 4 -45 0 -10 -3
-35 -4 -55 -2 -20 2 -43 3 -51 3 -109 -3 -421 -2 -427 2 -5 3 -15 2 -22 -3 -8
-4 -25 -4 -40 0 -14 4 -34 4 -45 0 -10 -3 -35 -4 -55 -2 -20 2 -43 3 -51 3
-109 -3 -421 -2 -427 2 -5 3 -15 2 -22 -3 -8 -4 -26 -4 -42 0 -15 5 -30 6 -33
2 -4 -3 -36 -5 -71 -4 l-65 1 -1 -32 c0 -17 0 -61 1 -97 1 -36 1 -72 0 -80 -1
-16 0 -88 1 -105 0 -5 -1 -27 -3 -47 -3 -21 -1 -38 3 -38 4 0 4 -15 0 -32 -4
-18 -5 -51 -4 -73 4 -44 4 -43 3 -100 0 -22 0 -49 0 -60 0 -45 -2 -105 -4
-105 -2 0 -18 24 -36 53 -19 28 -36 54 -40 57 -3 3 -19 23 -35 45 -70 94 -323
325 -347 318 -4 -2 -8 1 -8 6 0 5 -28 26 -62 47 -35 21 -65 40 -68 44 -3 3
-61 33 -130 67 -107 54 -316 132 -392 147 -13 3 -48 10 -78 16 -30 6 -68 13
-85 16 -16 2 -46 7 -65 10 -39 6 -132 14 -226 18 -33 1 -65 5 -71 9 -5 4 -13
4 -16 0z m618 -1478 c22 -3 51 -8 65 -10 121 -18 270 -74 367 -137 23 -16 45
-28 48 -28 4 0 30 -19 59 -42 49 -41 67 -56 131 -116 46 -42 144 -164 158
-194 6 -16 15 -28 18 -28 8 0 108 -211 112 -236 1 -10 6 -24 9 -30 4 -6 9 -21
12 -35 3 -13 12 -51 20 -84 31 -128 39 -208 40 -395 1 -165 -12 -331 -30 -380
-3 -8 -8 -28 -11 -45 -9 -54 -74 -236 -105 -294 -69 -127 -193 -289 -260 -339
-9 -7 -29 -25 -45 -40 -34 -34 -184 -132 -235 -155 -86 -38 -104 -46 -128 -53
-14 -5 -28 -9 -32 -10 -5 -1 -10 -3 -13 -4 -6 -3 -5 -3 -60 -15 -64 -13 -67
-14 -125 -21 -68 -9 -261 -9 -315 0 -137 22 -306 77 -385 125 -19 11 -44 25
-56 30 -83 37 -278 222 -355 337 -53 79 -124 218 -141 278 -6 23 -15 46 -18
51 -4 6 -13 33 -19 60 -12 50 -13 58 -32 150 -29 147 -31 512 -3 630 3 11 7
34 9 50 2 17 4 31 6 33 2 2 2 4 13 52 11 46 53 176 66 198 5 9 18 35 28 57 53
114 117 202 221 305 86 84 164 146 231 181 25 13 47 26 50 30 9 10 113 55 133
58 4 0 21 8 37 16 17 9 30 13 30 11 0 -3 11 -1 25 4 42 16 105 28 195 36 36 3
66 7 67 8 5 4 178 -3 218 -9z"/>
<path d="M28157 19154 c-1 -1 -37 -5 -80 -9 -43 -3 -124 -15 -180 -25 -56 -11
-113 -22 -127 -24 -14 -3 -37 -9 -52 -15 -16 -6 -28 -8 -28 -5 0 4 -6 2 -12
-3 -7 -6 -20 -11 -28 -11 -44 -1 -308 -110 -415 -170 -33 -18 -72 -39 -87 -45
-16 -6 -28 -15 -28 -19 0 -4 -6 -8 -14 -8 -8 0 -16 -3 -18 -7 -4 -11 -97 -73
-107 -73 -5 0 -11 -3 -13 -8 -1 -4 -34 -32 -73 -62 -143 -112 -282 -252 -387
-388 -28 -37 -56 -70 -62 -74 -6 -4 -7 -8 -2 -8 5 0 0 -10 -11 -22 -11 -13
-39 -52 -61 -88 -23 -36 -45 -70 -49 -76 -4 -5 -16 -26 -27 -45 -76 -140 -94
-178 -89 -183 4 -3 1 -6 -5 -6 -6 0 -14 -10 -17 -22 -4 -13 -13 -36 -21 -53
-36 -81 -126 -339 -139 -400 -11 -54 -15 -68 -20 -85 -3 -10 -8 -29 -10 -42
-3 -13 -7 -34 -10 -48 -7 -34 -14 -70 -20 -102 -3 -16 -8 -43 -11 -60 -3 -18
-7 -49 -9 -68 -2 -19 -6 -53 -9 -75 -16 -116 -20 -216 -20 -475 0 -328 4 -393
40 -615 15 -97 18 -114 34 -190 6 -27 13 -59 15 -70 20 -93 65 -245 77 -260 4
-5 8 -16 8 -25 0 -13 21 -70 80 -215 4 -11 9 -24 10 -30 4 -15 94 -185 119
-225 11 -19 24 -43 27 -52 4 -10 10 -18 15 -18 5 0 9 -5 9 -10 0 -10 96 -158
109 -170 3 -3 26 -32 51 -65 94 -126 242 -276 389 -398 40 -32 201 -147 207
-147 3 0 18 -8 32 -19 31 -21 193 -109 205 -110 4 0 20 -7 36 -15 26 -14 153
-64 176 -70 6 -2 17 -6 25 -9 37 -15 194 -56 198 -52 3 2 14 -1 25 -7 12 -6
32 -12 46 -14 14 -1 37 -5 51 -8 26 -5 76 -11 170 -22 30 -3 84 -7 121 -8 36
-1 70 -6 77 -10 7 -4 12 -4 12 1 0 4 46 8 103 8 93 0 154 4 277 20 25 4 59 8
76 10 26 4 159 34 217 50 9 3 26 7 36 9 11 3 29 10 40 16 12 6 21 8 21 4 0 -3
6 -2 13 3 10 8 104 46 117 48 8 1 184 89 190 95 12 12 112 70 121 70 5 0 9 3
9 8 0 4 8 12 18 17 123 66 386 325 471 465 11 19 21 28 22 20 0 -8 1 -183 1
-388 1 -204 3 -370 6 -367 3 2 12 0 21 -5 10 -5 23 -5 31 0 8 5 21 5 30 0 9
-5 22 -5 30 0 8 5 21 5 31 -1 11 -6 20 -5 24 1 4 6 12 7 23 1 9 -5 26 -5 39 0
13 5 25 4 28 -1 4 -7 13 -6 25 0 13 7 21 7 25 0 4 -7 12 -7 24 0 10 5 21 7 24
4 9 -10 42 -12 58 -3 8 4 21 4 29 -1 8 -5 21 -5 31 1 11 6 20 5 24 -1 4 -7 13
-7 26 0 12 7 25 7 37 1 11 -6 24 -6 34 0 11 6 19 6 23 -1 4 -7 12 -7 25 0 11
6 21 6 25 1 3 -6 17 -6 35 -1 18 5 32 5 35 -1 4 -5 14 -5 25 1 13 7 21 7 25 0
4 -6 13 -7 23 -1 11 6 24 6 34 0 10 -6 26 -5 42 1 15 5 26 6 26 0 0 -5 12 -5
30 0 18 5 30 5 30 0 0 -6 11 -5 26 0 16 6 32 6 43 1 10 -6 23 -6 31 -1 8 5 21
5 31 -1 11 -6 20 -5 24 1 4 6 12 7 23 1 9 -5 26 -5 39 0 13 5 25 4 28 -1 4 -7
13 -6 25 0 13 7 21 7 25 0 4 -6 13 -7 24 -1 9 5 23 6 31 1 7 -4 24 -4 36 0 14
6 26 5 29 0 3 -6 15 -6 30 0 15 6 27 6 30 -1 4 -6 13 -6 23 0 9 5 26 5 39 0
14 -5 23 -5 23 1 0 6 9 6 23 1 13 -5 30 -5 38 -1 8 5 21 5 28 1 17 -11 51 -2
52 13 0 6 1 1237 1 2734 1 2841 2 2763 -37 2733 -11 -9 -73 -7 -82 2 -3 3 -16
2 -29 -3 -15 -6 -26 -6 -30 1 -3 6 -10 6 -17 1 -7 -5 -28 -7 -47 -5 -19 2 -44
3 -55 3 -22 -2 -36 -2 -80 -1 -16 1 -63 0 -103 -1 -39 -2 -72 1 -72 5 0 5 -5
5 -12 1 -6 -4 -38 -6 -72 -5 -34 1 -70 2 -81 1 -11 -1 -42 -1 -70 -1 -27 1
-59 1 -70 0 -35 -1 -49 -1 -75 1 -14 1 -55 0 -91 -1 -36 -1 -70 1 -75 4 -6 3
-16 2 -23 -3 -8 -4 -25 -4 -40 0 -14 4 -34 4 -45 0 -10 -3 -35 -4 -55 -2 -20
2 -43 3 -51 3 -8 0 -94 -1 -191 -2 l-176 -1 1 -379 c1 -208 -2 -379 -6 -379
-3 0 -19 20 -35 45 -15 25 -31 45 -35 45 -5 0 -8 5 -8 11 0 6 -6 16 -12 23 -7
8 -31 35 -53 61 -57 68 -170 176 -240 228 -33 25 -68 53 -77 61 -10 9 -20 16
-23 16 -4 0 -32 17 -63 38 -63 42 -302 166 -302 157 0 -3 -18 4 -40 15 -22 11
-40 18 -40 14 0 -4 -6 -2 -12 3 -7 5 -33 15 -58 22 -25 7 -56 17 -70 22 -14 5
-36 11 -50 13 -22 4 -81 17 -145 31 -11 2 -42 6 -70 9 -27 3 -61 8 -75 11 -24
6 -437 14 -443 9z m803 -1468 c25 -3 54 -7 65 -9 11 -2 38 -8 60 -12 97 -17
309 -107 351 -149 8 -9 19 -16 24 -16 13 0 120 -89 185 -155 65 -66 147 -170
172 -220 9 -16 20 -33 25 -36 5 -3 10 -12 12 -20 1 -8 12 -34 25 -58 22 -43
77 -199 85 -243 3 -13 5 -24 7 -25 3 -5 5 -15 13 -73 5 -30 10 -64 13 -75 12
-56 18 -358 8 -435 -3 -19 -7 -55 -10 -80 -2 -25 -7 -56 -10 -70 -3 -14 -8
-38 -11 -55 -3 -16 -7 -34 -8 -40 -2 -5 -6 -23 -10 -40 -4 -16 -11 -39 -16
-50 -5 -11 -16 -44 -25 -72 -9 -29 -21 -55 -26 -58 -5 -4 -9 -14 -9 -24 0 -10
-7 -24 -15 -31 -8 -7 -13 -16 -10 -20 3 -4 -2 -13 -10 -20 -8 -7 -15 -17 -15
-22 0 -22 -109 -166 -184 -242 -165 -167 -334 -265 -551 -320 -137 -34 -375
-40 -505 -11 -14 3 -38 8 -53 10 -58 11 -185 58 -262 98 -126 66 -259 171
-356 283 -73 84 -185 281 -187 328 0 5 -4 12 -9 15 -9 6 -40 100 -50 151 -2
14 -7 32 -10 40 -3 8 -7 22 -8 30 -1 8 -6 35 -10 60 -11 62 -13 73 -21 170 -8
108 -10 230 -4 230 3 0 5 30 6 68 1 125 39 329 81 432 4 8 7 17 8 20 11 33 68
154 75 160 3 3 14 22 25 43 11 21 29 48 40 61 11 14 29 37 40 52 55 75 272
264 303 264 7 0 12 4 12 8 0 12 215 111 250 116 8 1 33 7 55 14 48 14 98 21
185 29 36 3 66 6 68 8 3 3 135 -3 192 -9z"/>
<path d="M19216 19133 c-1 -1 -31 -4 -66 -7 -36 -3 -77 -8 -92 -11 -16 -3 -40
-7 -55 -11 -16 -3 -41 -7 -58 -10 -16 -3 -44 -9 -61 -15 -17 -5 -40 -11 -50
-13 -22 -5 -140 -43 -169 -56 -84 -36 -241 -114 -243 -121 -2 -5 -7 -7 -12 -4
-4 3 -13 -2 -20 -10 -7 -8 -19 -15 -26 -15 -8 0 -14 -4 -14 -10 0 -5 -6 -10
-14 -10 -8 0 -16 -4 -18 -9 -1 -5 -10 -11 -18 -13 -8 -2 -17 -5 -20 -8 -14
-14 -90 -70 -94 -70 -3 0 -16 -9 -28 -19 -43 -37 -65 -56 -113 -96 -41 -35
-81 -74 -197 -197 -16 -16 -28 -32 -28 -36 0 -4 -9 -14 -20 -22 -11 -8 -20
-18 -20 -23 0 -4 -9 -18 -20 -29 -11 -12 -37 -48 -58 -80 -20 -31 -40 -57 -44
-58 -3 0 -6 195 -6 433 -1 237 -1 440 -1 449 -1 17 -33 22 -116 18 -11 -1 -42
-1 -70 -1 -27 1 -59 1 -70 0 -40 -2 -51 -1 -93 3 -24 2 -45 1 -47 -3 -5 -7
-74 -4 -82 5 -3 2 -16 1 -29 -4 -15 -6 -26 -6 -30 1 -3 6 -10 6 -17 1 -7 -5
-28 -7 -47 -5 -19 2 -41 4 -47 4 -130 -3 -162 -3 -170 2 -5 3 -15 2 -22 -3 -8
-4 -25 -4 -40 0 -14 4 -34 4 -45 0 -10 -3 -35 -4 -55 -2 -20 2 -43 3 -51 3
-85 -4 -302 -1 -309 4 -5 3 -12 1 -15 -4 -6 -9 -73 -7 -83 3 -3 2 -16 1 -29
-4 -15 -6 -26 -6 -30 1 -3 6 -10 6 -17 1 -7 -5 -28 -7 -47 -5 -34 4 -54 4 -95
0 -20 -2 -20 -10 -21 -2737 l-1 -2735 21 -6 c12 -3 33 -2 49 2 15 4 27 4 27 1
0 -8 75 -6 88 2 4 2 14 1 22 -4 8 -5 21 -5 31 1 11 6 20 5 24 -1 4 -7 12 -7
25 0 11 6 21 6 25 1 3 -6 17 -6 35 -1 18 5 32 5 35 -1 4 -5 14 -5 25 1 13 7
21 7 25 0 4 -6 13 -7 23 -1 11 6 24 6 34 0 10 -6 26 -5 42 1 15 5 26 6 26 0 0
-5 12 -5 30 0 19 5 30 5 30 -1 0 -6 4 -7 10 -4 15 9 81 12 86 4 3 -5 16 -4 29
1 15 6 27 6 30 0 4 -6 13 -7 24 -1 10 6 23 6 31 1 8 -5 19 -5 25 0 6 5 17 5
25 0 8 -5 21 -5 30 0 9 5 22 5 29 1 7 -5 30 -5 52 -1 22 4 42 4 45 -1 2 -4 16
-4 29 1 15 6 27 6 30 0 4 -7 13 -7 24 0 10 5 21 7 23 4 8 -8 117 -9 124 -1 4
3 15 2 25 -4 13 -7 19 -6 19 1 0 7 6 8 18 1 10 -5 24 -6 32 -1 8 5 21 5 31 -1
11 -6 20 -5 24 1 4 6 12 7 23 1 9 -5 26 -5 39 0 13 5 25 4 28 -1 4 -7 13 -6
25 0 13 7 21 7 25 0 4 -6 13 -7 23 -1 11 6 24 5 36 -1 12 -7 21 -7 28 0 6 6
17 8 24 5 10 -4 14 3 15 23 0 16 1 641 3 1389 2 748 6 1378 10 1400 10 58 37
198 40 210 2 6 6 24 10 40 4 17 11 39 16 50 4 11 15 40 24 65 58 165 240 360
401 431 17 8 32 17 35 21 3 4 15 9 25 11 11 2 34 10 50 16 17 7 37 15 45 17 8
2 55 15 105 29 49 13 110 27 135 29 25 2 56 7 70 10 14 3 86 8 160 11 74 3
136 7 138 9 2 3 17 0 33 -4 16 -5 29 -6 29 -2 0 8 125 6 146 -2 8 -3 14 -2 14
2 0 9 105 6 119 -3 6 -3 11 -2 11 2 0 5 23 7 50 6 l50 -3 0 889 0 890 -76 -2
c-42 -1 -76 -3 -78 -4z"/>
<path d="M33106 19083 c-3 -3 -50 -6 -103 -5 l-98 1 2 -2727 c0 -1500 2 -2733
2 -2741 1 -7 7 -11 16 -8 8 4 17 2 20 -3 4 -7 13 -6 25 0 13 7 21 7 25 0 4 -7
12 -7 25 0 13 7 21 7 25 0 4 -7 12 -7 23 -1 10 6 23 6 34 0 10 -5 27 -5 42 1
15 5 26 6 26 0 0 -5 12 -5 30 0 19 5 30 5 30 -1 0 -6 4 -7 10 -4 15 9 81 12
86 4 3 -5 16 -4 29 1 15 6 27 6 30 0 4 -6 13 -7 24 -1 10 6 23 6 31 1 8 -5 19
-5 25 0 6 5 17 5 25 0 8 -5 21 -5 30 0 9 5 22 5 29 1 7 -5 30 -5 52 -1 22 4
42 4 45 -1 2 -4 16 -4 29 1 15 6 27 6 30 0 4 -7 13 -7 24 0 10 5 21 7 23 4 8
-8 117 -9 124 -1 4 3 15 2 25 -4 13 -7 19 -6 19 1 0 7 6 8 18 1 10 -5 24 -6
32 -1 8 5 21 5 31 -1 11 -6 20 -5 24 1 4 6 12 7 23 1 9 -5 26 -5 39 0 13 5 25
4 28 -1 4 -7 13 -6 25 0 13 7 21 7 25 0 4 -7 12 -7 24 0 10 5 21 7 24 4 9 -10
42 -12 58 -3 8 4 21 4 29 -1 8 -5 21 -5 31 1 11 6 20 5 24 -1 4 -7 13 -7 26 0
12 7 25 7 37 1 11 -6 24 -6 34 0 11 6 19 6 23 -1 4 -7 12 -7 25 0 13 7 21 7
25 0 4 -6 13 -7 23 -1 9 4 22 7 27 4 8 -2 11 828 10 2733 l0 2737 -22 8 c-12
4 -25 4 -28 0 -5 -9 -73 -7 -82 3 -3 2 -16 1 -29 -4 -15 -6 -26 -6 -30 1 -3 6
-10 6 -17 1 -7 -5 -28 -7 -47 -5 -19 2 -41 4 -47 4 -130 -3 -162 -3 -170 2 -5
3 -15 2 -22 -3 -8 -4 -25 -4 -40 0 -14 4 -34 4 -45 0 -10 -3 -35 -4 -55 -2
-20 2 -43 3 -51 3 -85 -4 -302 -1 -309 4 -5 3 -12 1 -15 -4 -6 -9 -73 -7 -83
3 -3 2 -16 1 -29 -4 -15 -6 -26 -6 -30 1 -3 6 -10 6 -17 1 -7 -5 -28 -7 -47
-5 -19 2 -44 3 -55 3 -22 -2 -35 -2 -80 -1 -16 1 -43 0 -60 -2 -16 -1 -37 1
-46 5 -9 4 -19 5 -23 1z"/>
</g>
</svg>
